<?xml version="1.0" encoding="utf-8"?>
<!-- Generator: Adobe Illustrator 24.0.2, SVG Export Plug-In . SVG Version: 6.00 Build 0)  -->
<svg version="1.1" id="Icon" xmlns="http://www.w3.org/2000/svg" xmlns:xlink="http://www.w3.org/1999/xlink" x="0px" y="0px"
	 viewBox="0 0 128 128" style="enable-background:new 0 0 128 128;" xml:space="preserve">
<style type="text/css">
	.st0{opacity:0;fill:#FFFFFF;}
	.st1{fill:#FF6600;}
	.st2{fill:#FFFFFF;}
	.st3{fill:#366AD3;}
	.st4{fill:#0F9D58;}
</style>
<g id="Fill">
	<rect class="st0" width="128" height="128"/>
</g>
<g id="XML">
	<g id="BG_2_">
		<path class="st1" d="M108,120H76c-6.6,0-12-5.4-12-12V76c0-6.6,5.4-12,12-12h32c6.6,0,12,5.4,12,12v32
			C120,114.6,114.6,120,108,120z"/>
	</g>
	<g id="Icon_2_">
		<g id="Layer_9_copy">
			<g>
				<path class="st2" d="M86.02,104.64L70.37,94.39v-5.67l15.65-10.2v6.68L75.1,91.49L86.02,98V104.64z"/>
				<path class="st2" d="M87.47,109.14l5.65-35.53h3.29l-5.72,35.53H87.47z"/>
				<path class="st2" d="M97.85,104.66v-6.63l10.93-6.47l-10.93-6.4v-6.59l15.67,10.2v5.63L97.85,104.66z"/>
			</g>
		</g>
	</g>
</g>
<g id="JSON">
	<g id="BG_1_">
		<path class="st3" d="M108,64H76c-6.6,0-12-5.4-12-12V20c0-6.6,5.4-12,12-12h32c6.6,0,12,5.4,12,12v32C120,58.6,114.6,64,108,64z"
			/>
	</g>
	<g id="Icon_1_">
		<g id="Layer_9">
			<g>
				<path class="st2" d="M70.29,38.94v-5.63c1.14-0.06,2-0.23,2.58-0.52s1.08-0.75,1.5-1.42s0.71-1.5,0.87-2.5
					c0.13-0.75,0.19-2.05,0.19-3.91c0-3.03,0.14-5.14,0.42-6.34s0.79-2.16,1.52-2.88s1.8-1.3,3.21-1.72
					c0.95-0.28,2.45-0.42,4.5-0.42h1.24v5.6c-1.73,0-2.85,0.1-3.34,0.29s-0.86,0.49-1.09,0.89s-0.35,1.08-0.35,2.05
					c0,0.98-0.07,2.85-0.21,5.6c-0.08,1.55-0.28,2.8-0.61,3.76s-0.75,1.75-1.25,2.38s-1.29,1.27-2.33,1.95
					c0.92,0.53,1.68,1.15,2.26,1.86s1.04,1.57,1.35,2.59s0.52,2.38,0.61,4.08c0.11,2.59,0.16,4.25,0.16,4.97
					c0,1.03,0.13,1.75,0.38,2.16s0.63,0.71,1.14,0.93s1.61,0.32,3.29,0.32v5.63h-1.24c-2.11,0-3.73-0.17-4.85-0.5
					s-2.07-0.89-2.85-1.68s-1.29-1.75-1.56-2.89s-0.4-2.96-0.4-5.43c0-2.88-0.13-4.74-0.38-5.6c-0.34-1.25-0.86-2.14-1.56-2.68
					S71.73,39.02,70.29,38.94z"/>
				<path class="st2" d="M114.65,38.94c-1.14,0.06-2,0.23-2.58,0.52s-1.07,0.75-1.49,1.42s-0.71,1.5-0.88,2.5
					c-0.13,0.75-0.19,2.05-0.19,3.89c0,3.03-0.14,5.15-0.41,6.35s-0.78,2.17-1.51,2.89s-1.81,1.3-3.23,1.72
					c-0.95,0.28-2.45,0.42-4.5,0.42h-1.24v-5.63c1.67,0,2.77-0.11,3.28-0.32s0.89-0.52,1.14-0.91s0.37-1.07,0.38-2.03
					s0.07-2.77,0.2-5.46c0.08-1.63,0.29-2.93,0.63-3.9s0.8-1.8,1.37-2.48s1.3-1.28,2.19-1.79c-1.16-0.75-2-1.48-2.53-2.2
					c-0.73-1.03-1.23-2.34-1.5-3.94c-0.17-1.09-0.3-3.5-0.38-7.22c-0.02-1.17-0.12-1.95-0.32-2.34s-0.55-0.69-1.05-0.9
					s-1.64-0.32-3.41-0.32v-5.6h1.24c2.11,0,3.73,0.16,4.85,0.49s2.07,0.89,2.84,1.68s1.29,1.76,1.56,2.91s0.41,2.96,0.41,5.43
					c0,2.86,0.12,4.73,0.35,5.6c0.34,1.25,0.87,2.14,1.57,2.68s1.77,0.85,3.21,0.93V38.94z"/>
			</g>
		</g>
	</g>
</g>
<g id="Sheets">
	<g id="BG">
		<path class="st4" d="M52,92H20c-6.6,0-12-5.4-12-12V48c0-6.6,5.4-12,12-12h32c6.6,0,12,5.4,12,12v32C64,86.6,58.6,92,52,92z"/>
	</g>
	<g id="Lines">
		<rect x="26" y="42" class="st2" width="6" height="44"/>
		<rect x="14" y="54" class="st2" width="44" height="6"/>
	</g>
</g>
<g>
</g>
<g>
</g>
<g>
</g>
<g>
</g>
<g>
</g>
<g>
</g>
<g>
</g>
<g>
</g>
<g>
</g>
<g>
</g>
<g>
</g>
<g>
</g>
<g>
</g>
<g>
</g>
<g>
</g>
</svg>
