<?xml version="1.0" encoding="utf-8"?>
<!-- Generator: Adobe Illustrator 24.0.2, SVG Export Plug-In . SVG Version: 6.00 Build 0)  -->
<svg version="1.1" id="Icon" xmlns="http://www.w3.org/2000/svg" xmlns:xlink="http://www.w3.org/1999/xlink" x="0px" y="0px"
	 viewBox="0 0 64 64" style="enable-background:new 0 0 64 64;" xml:space="preserve">
<style type="text/css">
	.st0{opacity:0;fill:#FFFFFF;}
	.st1{fill:#366AD3;}
	.st2{fill:#FFFFFF;}
</style>
<g id="Fill">
	<rect y="0.11" class="st0" width="64" height="64"/>
</g>
<g id="JSON">
	<g id="BG_1_">
		<path class="st1" d="M47.67,59.89H16.5c-6.6,0-12-5.4-12-12V16.73c0-6.6,5.4-12,12-12h31.17c6.6,0,12,5.4,12,12v31.17
			C59.67,54.49,54.27,59.89,47.67,59.89z"/>
	</g>
	<g id="Icon_1_">
		<g id="Layer_9">
			<g>
				<path class="st2" d="M10.7,35.21v-5.54c1.12-0.06,1.97-0.23,2.54-0.51c0.57-0.28,1.06-0.74,1.48-1.4
					c0.42-0.65,0.7-1.47,0.85-2.46c0.12-0.74,0.18-2.02,0.18-3.86c0-2.99,0.14-5.07,0.42-6.25c0.28-1.18,0.78-2.12,1.5-2.84
					c0.72-0.72,1.78-1.28,3.16-1.7c0.94-0.28,2.42-0.42,4.43-0.42h1.22v5.52c-1.71,0-2.81,0.1-3.29,0.29s-0.84,0.48-1.07,0.88
					c-0.23,0.39-0.35,1.07-0.35,2.02c0,0.97-0.07,2.81-0.21,5.52c-0.08,1.52-0.28,2.76-0.6,3.71c-0.32,0.95-0.74,1.73-1.24,2.34
					c-0.5,0.62-1.27,1.25-2.3,1.92c0.91,0.52,1.65,1.14,2.23,1.83c0.58,0.7,1.02,1.55,1.33,2.55c0.31,1,0.51,2.34,0.6,4.02
					c0.11,2.56,0.16,4.19,0.16,4.9c0,1.02,0.12,1.72,0.37,2.12s0.62,0.7,1.12,0.91c0.5,0.21,1.58,0.31,3.24,0.31v5.54h-1.22
					c-2.08,0-3.67-0.17-4.78-0.5s-2.04-0.88-2.81-1.65c-0.76-0.77-1.27-1.72-1.54-2.85c-0.26-1.13-0.39-2.91-0.39-5.35
					c0-2.83-0.12-4.67-0.37-5.52c-0.34-1.23-0.85-2.11-1.54-2.64C13.17,35.59,12.11,35.28,10.7,35.21z"/>
				<path class="st2" d="M54.4,35.21c-1.12,0.06-1.97,0.23-2.54,0.51c-0.57,0.28-1.06,0.74-1.47,1.4c-0.41,0.65-0.7,1.47-0.87,2.46
					c-0.12,0.74-0.18,2.02-0.18,3.83c0,2.99-0.13,5.07-0.4,6.26s-0.77,2.14-1.49,2.85s-1.79,1.28-3.19,1.7
					c-0.94,0.28-2.42,0.42-4.43,0.42h-1.22v-5.54c1.65,0,2.72-0.1,3.23-0.31s0.88-0.51,1.12-0.9c0.24-0.39,0.36-1.06,0.37-2
					c0.01-0.94,0.07-2.73,0.2-5.38c0.08-1.6,0.29-2.88,0.62-3.84c0.34-0.96,0.79-1.78,1.35-2.45c0.56-0.67,1.28-1.26,2.16-1.77
					c-1.14-0.74-1.97-1.46-2.49-2.17c-0.72-1.02-1.22-2.31-1.48-3.88c-0.17-1.08-0.29-3.45-0.37-7.11
					c-0.02-1.15-0.12-1.92-0.31-2.31s-0.54-0.68-1.04-0.89s-1.62-0.31-3.36-0.31v-5.52h1.22c2.08,0,3.67,0.16,4.78,0.48
					s2.04,0.87,2.79,1.65c0.75,0.78,1.27,1.73,1.54,2.86s0.4,2.91,0.4,5.35c0,2.82,0.12,4.66,0.35,5.52
					c0.34,1.23,0.85,2.11,1.55,2.64c0.69,0.53,1.75,0.83,3.16,0.91V35.21z"/>
			</g>
		</g>
	</g>
</g>
<g>
</g>
<g>
</g>
<g>
</g>
<g>
</g>
<g>
</g>
<g>
</g>
<g>
</g>
<g>
</g>
<g>
</g>
<g>
</g>
<g>
</g>
<g>
</g>
<g>
</g>
<g>
</g>
<g>
</g>
</svg>
