<?xml version="1.0" encoding="utf-8"?>
<!-- Generator: Adobe Illustrator 24.0.2, SVG Export Plug-In . SVG Version: 6.00 Build 0)  -->
<svg version="1.1" id="Icon" xmlns="http://www.w3.org/2000/svg" xmlns:xlink="http://www.w3.org/1999/xlink" x="0px" y="0px"
	 viewBox="0 0 64 64" style="enable-background:new 0 0 64 64;" xml:space="preserve">
<style type="text/css">
	.st0{opacity:0;fill:#FFFFFF;}
	.st1{fill:#FF6600;}
	.st2{fill:#FFFFFF;}
</style>
<g id="Fill">
	<rect y="0.11" class="st0" width="64" height="64"/>
</g>
<g id="XML">
	<g id="BG_2_">
		<path class="st1" d="M47.67,59.89H16.5c-6.6,0-12-5.4-12-12V16.73c0-6.6,5.4-12,12-12h31.17c6.6,0,12,5.4,12,12v31.17
			C59.67,54.49,54.27,59.89,47.67,59.89z"/>
	</g>
	<g id="Icon_2_">
		<g id="Layer_9_copy">
			<g>
				<path class="st2" d="M26.19,44.76L10.77,34.67v-5.59l15.42-10.04v6.58l-10.75,6.19l10.75,6.42V44.76z"/>
				<path class="st2" d="M27.62,49.19l5.57-35h3.24l-5.63,35H27.62z"/>
				<path class="st2" d="M37.85,44.78v-6.53l10.77-6.37l-10.77-6.3v-6.49l15.43,10.04v5.54L37.85,44.78z"/>
			</g>
		</g>
	</g>
</g>
<g>
</g>
<g>
</g>
<g>
</g>
<g>
</g>
<g>
</g>
<g>
</g>
<g>
</g>
<g>
</g>
<g>
</g>
<g>
</g>
<g>
</g>
<g>
</g>
<g>
</g>
<g>
</g>
<g>
</g>
</svg>
